<svg id="Group_513" data-name="Group 513" xmlns="http://www.w3.org/2000/svg" xmlns:xlink="http://www.w3.org/1999/xlink" width="74.648" height="74.649" viewBox="0 0 74.648 74.649">
  <defs>
    <clipPath id="clip-path">
      <rect id="Rectangle_529" data-name="Rectangle 529" width="74.648" height="74.649" transform="translate(0 0)" fill="none"/>
    </clipPath>
  </defs>
  <g id="Group_512" data-name="Group 512" clip-path="url(#clip-path)">
    <path id="Path_934" data-name="Path 934" d="M74.2,71.885a58.405,58.405,0,0,0-7.785-3L66.13,68.8V59.468l.241-.376a29.865,29.865,0,0,1,5.166-6.3,9.321,9.321,0,0,0,.778-13.107l-.1-.113V4.869H69.782V0H53.545V4.869H51.111V14.6H46.244v4.868H43.81v4.868H40.576V9.736H38.141V4.869h-3.65V0h-13.8V4.869H17.037V9.736H14.6V19.47H4.869v4.868H2.434V39.57l-.1.113a9.329,9.329,0,0,0,.773,13.1A29.758,29.758,0,0,1,8.281,59.1l.237.368V68.8l-.283.087A58.414,58.414,0,0,0,.443,71.889L0,72.111V74.65H74.649V72.111ZM73.016,45.829a7.705,7.705,0,0,1-2.561,5.738,27.9,27.9,0,0,0-3.6,3.972l-.721.967V48.781l4.058-2.032-.731-1.461L66.13,46.954V43.806H64.5V56.527l-.712-.882a56.857,56.857,0,0,0-3.971-4.421,7.645,7.645,0,0,1-2.2-5.668,7.813,7.813,0,0,1,7.562-7.412h.142a7.694,7.694,0,0,1,7.692,7.686M50.31,65V59.534l.094-.112a16.307,16.307,0,0,1,3.486-3.114,8.084,8.084,0,0,0,3.387-4.562L57.493,51l.482.612a9.986,9.986,0,0,0,.667.758,43.269,43.269,0,0,1,5.605,6.721l.246.381V68.3l-.51-.144a95.066,95.066,0,0,0-13.33-2.768L50.7,65Zm-12.5-5.009.575-.894a33.13,33.13,0,0,1,3.852-5l.338-.36.282.4a8.162,8.162,0,0,0,1.914,1.949,21.311,21.311,0,0,1,3.807,3.326l.1.115v5.616l-.443-.049c-3.212-.35-6.475-.547-9.7-.585l-.4,0V59.986Zm3.96-8.043.075.233-.176.173a29.311,29.311,0,0,0-2.807,3.2l-.72.951V48.782l3.417-1.708-.026.8a8.251,8.251,0,0,0,.237,4.073m6.908-4.486v9.678l-.663-.576c-.688-.6-1.461-1.206-2.3-1.8a6.481,6.481,0,0,1,2.362-11.6,6.74,6.74,0,0,1,1.4-.147h.031a6.477,6.477,0,0,1,3.5,11.923,16.852,16.852,0,0,0-2.031,1.571l-.669.6V52.433L54.369,50.4l-.732-1.462L50.31,50.6V47.457Zm6.5-45.826h12.97V4.868H55.178ZM52.745,6.5H70.582V38.116l-.6-.348a9.133,9.133,0,0,0-4.826-1.259,8.966,8.966,0,0,0-2.171.315l-.506.137V24.338H57.613V19.471H55.178V14.6H52.745Zm-4.869,9.733h5.669v3.234H47.876ZM45.443,21.1H55.978v3.234H45.443Zm-4.866,4.872h20.27V37.683a9.531,9.531,0,0,0-4.648,6.2l-.173.76-.517-.584a7.994,7.994,0,0,0-7.752-2.5,7.619,7.619,0,0,0-1.48.489l-.357.159-.168-.352a9.294,9.294,0,0,0-4.924-4.63l-.251-.1Zm3.807,16.857-.369.155.252.3a8.183,8.183,0,0,0-1.932,2.342l-.368.668-.5-1.007-3.328,1.664V43.806H36.508V56.547l-.714-.9c-1.03-1.3-2.061-2.414-2.843-3.241l-.164-.173.074-.227a8.268,8.268,0,0,0,.247-4.173,8.076,8.076,0,0,0-2.714-4.529l-.226-.188.114-.273a7.643,7.643,0,0,1,14.1-.016M24.343,52.435V57.11l-.668-.6a16.778,16.778,0,0,0-2.039-1.571,6.478,6.478,0,0,1,3.511-11.92h.023a6.821,6.821,0,0,1,1.393.145,6.48,6.48,0,0,1,2.369,11.6c-.836.6-1.608,1.2-2.3,1.8l-.663.576V47.458H24.339v3.148L21.01,48.942,20.28,50.4Zm-.009,7.1v5.807l-.347.047a94.925,94.925,0,0,0-13.325,2.767l-.51.144v-8.83l.236-.372a43.41,43.41,0,0,1,5.62-6.737,9.759,9.759,0,0,0,.66-.751L17.152,51l.216.749a8.081,8.081,0,0,0,3.382,4.559,16.278,16.278,0,0,1,3.491,3.117Zm1.638,0,.1-.115a21.172,21.172,0,0,1,3.814-3.332,8.054,8.054,0,0,0,1.857-1.873l.283-.4.335.352a35.972,35.972,0,0,1,3.9,4.927l.241.378v5.034l-.4,0c-3.234.039-6.5.236-9.7.585l-.443.049Zm-3.65-57.9H32.857V4.868H22.322ZM18.67,6.5H36.508V9.735H18.67Zm20.265,4.866V36.659L38.48,36.6a7.841,7.841,0,0,0-1.323-.087,9.423,9.423,0,0,0-8.243,5.356l-.169.351-.355-.159a7.665,7.665,0,0,0-1.5-.5,8.3,8.3,0,0,0-2.9-.089l-.458.067v-17.2H21.1V19.471H16.238l0-8.106ZM6.5,21.1H19.471v3.234H6.5ZM4.068,25.972H21.9V42.054l-.231.108a8.06,8.06,0,0,0-1.635,1.026,8.161,8.161,0,0,0-.9.868l-.516.581-.172-.758a9.47,9.47,0,0,0-8.959-7.371A9.17,9.17,0,0,0,4.67,37.762l-.6.352ZM7.8,55.539a28.037,28.037,0,0,0-3.607-3.973,7.7,7.7,0,0,1,5.14-13.424h.125a7.822,7.822,0,0,1,7.573,7.41,7.642,7.642,0,0,1-2.195,5.67,56.664,56.664,0,0,0-3.972,4.422l-.712.882V43.811H8.519v3.146L5.19,45.292l-.732,1.462,4.064,2.032v7.719ZM70.766,73.016H3.884l-.142-.774a92.717,92.717,0,0,1,33.165-6.113h.839a92.726,92.726,0,0,1,33.163,6.113Z" fill="#fff"/>
    <rect id="Rectangle_513" data-name="Rectangle 513" width="1.633" height="1.633" transform="translate(7.301 29.207)" fill="#fff"/>
    <rect id="Rectangle_514" data-name="Rectangle 514" width="1.633" height="1.633" transform="translate(12.169 29.207)" fill="#fff"/>
    <rect id="Rectangle_515" data-name="Rectangle 515" width="1.633" height="1.633" transform="translate(17.037 29.207)" fill="#fff"/>
    <rect id="Rectangle_516" data-name="Rectangle 516" width="1.633" height="1.633" transform="translate(19.471 14.604)" fill="#fff"/>
    <rect id="Rectangle_517" data-name="Rectangle 517" width="1.634" height="1.633" transform="translate(26.771 14.604)" fill="#fff"/>
    <rect id="Rectangle_518" data-name="Rectangle 518" width="1.634" height="1.633" transform="translate(34.073 14.604)" fill="#fff"/>
    <rect id="Rectangle_519" data-name="Rectangle 519" width="1.634" height="1.634" transform="translate(26.771 19.47)" fill="#fff"/>
    <rect id="Rectangle_520" data-name="Rectangle 520" width="1.634" height="1.634" transform="translate(34.073 19.47)" fill="#fff"/>
    <rect id="Rectangle_521" data-name="Rectangle 521" width="1.634" height="1.634" transform="translate(26.771 24.338)" fill="#fff"/>
    <rect id="Rectangle_522" data-name="Rectangle 522" width="1.634" height="1.634" transform="translate(34.073 24.338)" fill="#fff"/>
    <rect id="Rectangle_523" data-name="Rectangle 523" width="1.634" height="1.633" transform="translate(26.771 29.207)" fill="#fff"/>
    <rect id="Rectangle_524" data-name="Rectangle 524" width="1.634" height="1.633" transform="translate(34.073 29.207)" fill="#fff"/>
    <rect id="Rectangle_525" data-name="Rectangle 525" width="1.633" height="1.633" transform="translate(58.412 9.736)" fill="#fff"/>
    <rect id="Rectangle_526" data-name="Rectangle 526" width="1.633" height="1.633" transform="translate(58.412 14.604)" fill="#fff"/>
    <rect id="Rectangle_527" data-name="Rectangle 527" width="1.634" height="1.633" transform="translate(63.279 9.736)" fill="#fff"/>
    <rect id="Rectangle_528" data-name="Rectangle 528" width="1.634" height="1.633" transform="translate(63.279 14.604)" fill="#fff"/>
    <path id="Path_935" data-name="Path 935" d="M57.608,29.207h-13.8v6.5h13.8Zm-7.714,4.868H45.443V30.84h4.451Zm6.084,0H51.527V30.84h4.451Z" fill="#fff"/>
  </g>
</svg>
