<svg id="Group_313" data-name="Group 313" xmlns="http://www.w3.org/2000/svg" xmlns:xlink="http://www.w3.org/1999/xlink" width="75" height="75.006" viewBox="0 0 75 75.006">
  <defs>
    <clipPath id="clip-path">
      <rect id="Rectangle_406" data-name="Rectangle 406" width="75" height="75.001" fill="#fff"/>
    </clipPath>
    <clipPath id="clip-path-2">
      <rect id="Rectangle_407" data-name="Rectangle 407" width="75" height="75.006" fill="#fff"/>
    </clipPath>
  </defs>
  <g id="Group_281" data-name="Group 281" transform="translate(0 0.005)">
    <g id="Group_280" data-name="Group 280" clip-path="url(#clip-path)">
      <path id="Path_810" data-name="Path 810" d="M75,9.406C75,4.236,71.636.031,67.5.031S60,4.236,60,9.406c0,4.636,2.709,8.486,6.25,9.234V40.032H55v-5a3.75,3.75,0,0,0-7.5,0v5H29.169A3.81,3.81,0,0,0,27.5,39V37.5A6.225,6.225,0,0,0,30,32.531v-6.25a6.258,6.258,0,0,0-6.25-6.25H22.5a6.187,6.187,0,0,0-3.779,1.307,4.369,4.369,0,1,0-3.1,7.443,4.261,4.261,0,0,0,.816-.084A7.72,7.72,0,0,0,17.5,31.7v.827A6.22,6.22,0,0,0,20,37.5v1.513a3.75,3.75,0,0,0-1.524,1.02H8.75V18.64c3.541-.75,6.25-4.6,6.25-9.234C15,4.236,11.636.031,7.5.031S0,4.236,0,9.406c0,4.636,2.708,8.486,6.25,9.234V40.032h-5a1.25,1.25,0,0,0,0,2.5H17.5V66.057a8.672,8.672,0,0,0,.418,2.686v.037a8.949,8.949,0,0,0,2.341,3.751H1.25a1.25,1.25,0,0,0,0,2.5h72.5a1.25,1.25,0,0,0,0-2.5H54.4a4.669,4.669,0,0,0-1.071-5.875l-8.934-7.874H53.75a2.5,2.5,0,0,0,2.5-2.5v-2.5A2.493,2.493,0,0,0,55,51.629v-9.1H73.75a1.25,1.25,0,0,0,0-2.5h-5V18.64c3.542-.748,6.25-4.6,6.25-9.234m-72.5,0c0-3.79,2.242-6.875,5-6.875s5,3.085,5,6.875c0,3.2-1.6,5.882-3.75,6.649V13.781a1.25,1.25,0,0,0-2.5,0v2.274C4.1,15.288,2.5,12.6,2.5,9.406M50,35.031a1.25,1.25,0,0,1,2.5,0v16.25H50Zm-2.5,16.25H44.521a4.12,4.12,0,0,0,.47-2.139,4.365,4.365,0,0,0-4.366-4.112H34.162a1.235,1.235,0,0,1-.84-.316l-1.935-2.183H47.5ZM35.037,58.453l-3.787,1.97V53.781h2.5v2.5a2.49,2.49,0,0,0,1.286,2.171m-4.519-7.172-4.634-4.633a1.25,1.25,0,0,0-1.767,1.768l4.633,4.633v8.689l-8.719,4.723c-.008-.135-.031-.266-.031-.405V42.532a1.246,1.246,0,0,1,.375-.892,3.743,3.743,0,0,0,3.375,2.142H25a2.5,2.5,0,0,0,2.432-1.942L31.5,46.427a3.725,3.725,0,0,0,2.662,1.1h6.463a1.891,1.891,0,0,1,1.329.548,1.864,1.864,0,0,1,.542,1.212A1.748,1.748,0,0,1,42,50.6a2.168,2.168,0,0,1-1.571.681Zm-6.767-15A3.751,3.751,0,0,1,20,32.531h1.865a3.722,3.722,0,0,0,3.375-2.125,2.881,2.881,0,0,1,2.26-1.52v3.645a3.751,3.751,0,0,1-3.75,3.751M22.5,22.531H23.75a3.75,3.75,0,0,1,3.75,3.75v.078a5.428,5.428,0,0,0-4.509,2.96,1.25,1.25,0,0,1-1.125.713H19.425a8.5,8.5,0,0,1-.675-3.751,3.75,3.75,0,0,1,3.75-3.75m-8.75,1.875a1.875,1.875,0,0,1,3.33-1.178,6.17,6.17,0,0,0-.817,2.934,1.86,1.86,0,0,1-2.513-1.756m10,14.375A6.244,6.244,0,0,0,25,38.657v2.624H23.75a1.25,1.25,0,0,1-1.251-1.25V38.657a6.248,6.248,0,0,0,1.251.124m9.266,33.751,7.3-4.684,5.36,4.684ZM52.5,70.257a2.23,2.23,0,0,1-3.7,1.684L41.964,65.97a2.5,2.5,0,0,0-3-.228L29.99,71.5a6.486,6.486,0,0,1-9.3-2.552l9.892-5.361,8.956-4.66a1.269,1.269,0,0,1,1.376.114L51.7,68.554a2.209,2.209,0,0,1,.8,1.7M36.25,53.781h17.5v2.5H36.25ZM62.5,9.406c0-3.79,2.242-6.875,5-6.875s5,3.085,5,6.875c0,3.2-1.6,5.882-3.75,6.649V13.781a1.25,1.25,0,0,0-2.5,0v2.274C64.1,15.288,62.5,12.6,62.5,9.406" transform="translate(0 -0.031)" fill="#fff"/>
      <path id="Path_811" data-name="Path 811" d="M190.556,15.006a5,5,0,1,0,0-10h-.124a6.25,6.25,0,0,0-12.251,0,5,5,0,0,0-.125,10Zm-15-5a2.5,2.5,0,0,1,2.5-2.5,2.258,2.258,0,0,1,.81.14,1.265,1.265,0,0,0,1.69-1.39,3.75,3.75,0,0,1,7.5.022,1.25,1.25,0,0,0,1.686,1.368,2.245,2.245,0,0,1,.813-.14,2.5,2.5,0,0,1,0,5h-12.5a2.5,2.5,0,0,1-2.5-2.5" transform="translate(-139.307 -0.006)" fill="#fff"/>
    </g>
  </g>
  <g id="Group_283" data-name="Group 283">
    <g id="Group_282" data-name="Group 282" clip-path="url(#clip-path-2)">
      <path id="Path_812" data-name="Path 812" d="M305.648,252.132a1.25,1.25,0,1,0,0-2.5h-10a1.25,1.25,0,1,0,0,2.5Z" transform="translate(-236.898 -200.877)" fill="#fff"/>
      <path id="Path_813" data-name="Path 813" d="M332.5,289.281a1.25,1.25,0,0,0-1.25-1.25h-10a1.25,1.25,0,0,0,0,2.5h10a1.25,1.25,0,0,0,1.25-1.251" transform="translate(-257.5 -231.775)" fill="#fff"/>
      <path id="Path_814" data-name="Path 814" d="M281.6,327.68a1.249,1.249,0,0,0,1.25,1.25h10a1.25,1.25,0,1,0,0-2.5h-10a1.25,1.25,0,0,0-1.25,1.251" transform="translate(-226.602 -262.673)" fill="#fff"/>
      <path id="Path_815" data-name="Path 815" d="M0,327.68a1.25,1.25,0,0,0,1.25,1.25h5a1.25,1.25,0,0,0,0-2.5h-5A1.251,1.251,0,0,0,0,327.68" transform="translate(0 -262.673)" fill="#fff"/>
      <path id="Path_816" data-name="Path 816" d="M12.8,289.281a1.25,1.25,0,0,0,1.25,1.251h5a1.25,1.25,0,0,0,0-2.5h-5a1.25,1.25,0,0,0-1.25,1.25" transform="translate(-10.301 -231.775)" fill="#fff"/>
      <path id="Path_817" data-name="Path 817" d="M12.648,249.633h-5a1.25,1.25,0,1,0,0,2.5h5a1.25,1.25,0,1,0,0-2.5" transform="translate(-5.148 -200.877)" fill="#fff"/>
    </g>
  </g>
</svg>
