<svg width="75" height="75" viewBox="0 0 75 75" fill="none" xmlns="http://www.w3.org/2000/svg">
<g clip-path="url(#clip0_209_401)">
<path d="M45.8291 37.917C45.5902 37.917 45.3566 37.9878 45.158 38.1206C44.9593 38.2533 44.8045 38.442 44.713 38.6627C44.6216 38.8834 44.5977 39.1263 44.6443 39.3607C44.6909 39.595 44.806 39.8102 44.9749 39.9792C45.1439 40.1481 45.3591 40.2632 45.5934 40.3098C45.8278 40.3564 46.0706 40.3325 46.2914 40.241C46.5121 40.1496 46.7008 39.9948 46.8335 39.7961C46.9662 39.5975 47.0371 39.3639 47.0371 39.125C47.0368 38.8047 46.9095 38.4976 46.683 38.2711C46.4565 38.0446 46.1494 37.9173 45.8291 37.917" fill="white"/>
<path d="M0.300689 34.0851L0.319689 34.1081L36.1817 73.7641C36.3967 74.0018 36.6973 74.1443 37.0174 74.1604C37.3375 74.1766 37.6509 74.0649 37.8887 73.8501L37.9757 73.7631L73.8507 34.1001C74.0392 33.8887 74.1479 33.6181 74.158 33.335C74.168 33.052 74.0788 32.7743 73.9057 32.5501L62.2317 17.9501C62.119 17.8081 61.9756 17.6935 61.8123 17.6149C61.649 17.5362 61.47 17.4956 61.2887 17.4961H12.8717C12.6904 17.4956 12.5114 17.5362 12.3481 17.6149C12.1848 17.6935 12.0414 17.8081 11.9287 17.9501L0.261689 32.5371C0.0869423 32.7593 -0.0047812 33.0355 0.00233849 33.3181C0.00945818 33.6007 0.114975 33.872 0.300689 34.0851V34.0851ZM31.9087 65.4411L3.92769 34.5001H18.7917L18.8567 34.6491L32.3227 65.1731L31.9087 65.4411ZM37.0807 69.9701L21.4317 34.5001H52.7257L52.5707 34.8511L37.0807 69.9701ZM42.2507 65.4411L41.8367 65.1731L55.3657 34.5001H70.2317L42.2507 65.4411ZM60.7077 19.9171L70.4417 32.0841H55.2647L55.1907 31.9631L47.9647 19.9171H60.7077ZM45.1457 19.9171L45.2197 20.0381L52.4457 32.0841H21.7147L29.0147 19.9171H45.1457ZM13.4527 19.9171H26.1957L18.9007 32.0841H3.72269L13.4527 19.9171Z" fill="white"/>
<path d="M39.9963 37.917H29.1723C28.8578 37.926 28.5592 38.0573 28.34 38.283C28.1207 38.5086 27.998 38.8109 27.998 39.1255C27.998 39.4401 28.1207 39.7424 28.34 39.968C28.5592 40.1937 28.8578 40.3249 29.1723 40.334H39.9963C40.3108 40.3249 40.6094 40.1937 40.8286 39.968C41.0479 39.7424 41.1705 39.4401 41.1705 39.1255C41.1705 38.8109 41.0479 38.5086 40.8286 38.283C40.6094 38.0573 40.3108 37.926 39.9963 37.917" fill="white"/>
<path d="M37.0801 11.4169V11.1669C37.4002 11.1661 37.707 11.0386 37.9334 10.8122C38.1598 10.5859 38.2873 10.2791 38.2881 9.95892V1.20792C38.279 0.893428 38.1478 0.594847 37.9221 0.375594C37.6965 0.156342 37.3942 0.0336914 37.0796 0.0336914C36.765 0.0336914 36.4627 0.156342 36.2371 0.375594C36.0114 0.594847 35.8801 0.893428 35.8711 1.20792V9.95792C35.8714 10.2782 35.9987 10.5853 36.2252 10.8118C36.4517 11.0383 36.7588 11.1657 37.0791 11.1659V11.4159L37.0801 11.4169Z" fill="white"/>
<path d="M52.5181 4.97975C52.6347 4.87108 52.7287 4.7404 52.7946 4.59525C52.8605 4.45009 52.897 4.29333 52.902 4.134C52.907 3.97467 52.8804 3.81592 52.8238 3.6669C52.7672 3.51789 52.6817 3.38155 52.5721 3.26575C52.352 3.03275 52.0484 2.89661 51.7279 2.88724C51.4075 2.87786 51.0965 2.99601 50.8631 3.21575L44.9761 9.09975C44.7609 9.32888 44.6435 9.63279 44.6486 9.94706C44.6537 10.2613 44.781 10.5613 45.0035 10.7832C45.2261 11.0052 45.5263 11.1318 45.8406 11.1362C46.1548 11.1406 46.4585 11.0224 46.6871 10.8068L52.5181 4.97975Z" fill="white"/>
<path d="M21.5877 4.9267L27.4797 10.8187C27.5883 10.9361 27.719 11.0309 27.8644 11.0975C28.0099 11.164 28.167 11.2011 28.3269 11.2065C28.4867 11.2119 28.646 11.1855 28.7956 11.1289C28.9451 11.0723 29.082 10.9866 29.1982 10.8767C29.3144 10.7669 29.4077 10.635 29.4726 10.4889C29.5375 10.3427 29.5728 10.1851 29.5764 10.0253C29.5799 9.86537 29.5518 9.70636 29.4935 9.55745C29.4352 9.40853 29.3479 9.27265 29.2367 9.1577L23.3507 3.2717C23.2416 3.15455 23.1102 3.06027 22.9643 2.99435C22.8184 2.92843 22.6608 2.89217 22.5007 2.8877H22.4657C22.2297 2.88791 21.9988 2.95722 21.8017 3.0871C21.6045 3.21697 21.4497 3.40172 21.3564 3.61854C21.263 3.83536 21.2352 4.07478 21.2763 4.30724C21.3174 4.5397 21.4257 4.75505 21.5877 4.9267" fill="white"/>
</g>
<defs>
<clipPath id="clip0_209_401">
<rect width="74.158" height="74.162" fill="white"/>
</clipPath>
</defs>
</svg>
