<svg id="Group_505" data-name="Group 505" xmlns="http://www.w3.org/2000/svg" xmlns:xlink="http://www.w3.org/1999/xlink" width="74.158" height="74.162" viewBox="0 0 74.158 74.162">
  <defs>
    <clipPath id="clip-path">
      <rect id="Rectangle_510" data-name="Rectangle 510" width="74.158" height="74.162" transform="translate(0 0)" fill="none"/>
    </clipPath>
  </defs>
  <g id="Group_504" data-name="Group 504" clip-path="url(#clip-path)">
    <path id="Path_916" data-name="Path 916" d="M45.829,37.917a1.208,1.208,0,1,0,1.208,1.208,1.209,1.209,0,0,0-1.208-1.208" fill="#fff"/>
    <path id="Path_917" data-name="Path 917" d="M.3,34.085l.019.023L36.181,73.764a1.209,1.209,0,0,0,1.707.086l.087-.087L73.85,34.1a1.214,1.214,0,0,0,.055-1.55l-11.674-14.6a1.2,1.2,0,0,0-.943-.454H12.871a1.2,1.2,0,0,0-.943.454L.261,32.537A1.214,1.214,0,0,0,.3,34.085M31.908,65.441,3.927,34.5H18.791l.065.149L32.322,65.173ZM37.08,69.97,21.431,34.5H52.725l-.155.351Zm5.17-4.529-.414-.268L55.365,34.5H70.231ZM60.707,19.917l9.734,12.167H55.264l-.074-.121L47.964,19.917Zm-15.562,0,.074.121,7.226,12.046H21.714l7.3-12.167Zm-31.693,0H26.195L18.9,32.084H3.722Z" fill="#fff"/>
    <path id="Path_918" data-name="Path 918" d="M39.995,37.917H29.171a1.209,1.209,0,0,0,0,2.417H39.995a1.209,1.209,0,0,0,0-2.417" fill="#fff"/>
    <path id="Path_919" data-name="Path 919" d="M37.079,11.417v-.25a1.211,1.211,0,0,0,1.208-1.208V1.208a1.209,1.209,0,0,0-2.417,0v8.75a1.209,1.209,0,0,0,1.208,1.208v.25Z" fill="#fff"/>
    <path id="Path_920" data-name="Path 920" d="M52.518,4.98a1.208,1.208,0,0,0,.054-1.714,1.21,1.21,0,0,0-1.709-.05L44.976,9.1a1.209,1.209,0,0,0,1.711,1.707Z" fill="#fff"/>
    <path id="Path_921" data-name="Path 921" d="M21.588,4.927l5.892,5.892a1.209,1.209,0,1,0,1.757-1.661L23.351,3.272a1.208,1.208,0,0,0-.85-.384h-.035a1.209,1.209,0,0,0-.878,2.039" fill="#fff"/>
  </g>
</svg>
