<svg id="Group_508" data-name="Group 508" xmlns="http://www.w3.org/2000/svg" xmlns:xlink="http://www.w3.org/1999/xlink" width="75" height="75" viewBox="0 0 75 75">
  <defs>
    <clipPath id="clip-path">
      <rect id="Rectangle_511" data-name="Rectangle 511" width="75" height="75" fill="none"/>
    </clipPath>
  </defs>
  <g id="Group_507" data-name="Group 507" clip-path="url(#clip-path)">
    <path id="Path_922" data-name="Path 922" d="M.666,61.237a4.457,4.457,0,0,0,.2.645.86.86,0,0,0,.047.087c.026.045.051.089.074.137A4.167,4.167,0,0,0,2.523,63.9a4.458,4.458,0,0,0,.515.279c.06.028.115.06.17.092a.8.8,0,0,0,.1.056,4.71,4.71,0,0,0,.612.187l.145.045a.933.933,0,0,0,.1.029,4.564,4.564,0,0,0,.911.092h33.2V62.994H5.083a3.1,3.1,0,0,1-.579-.058,1.494,1.494,0,0,1-.151-.044c-.153-.042-.264-.077-.374-.117-.13-.062-.224-.113-.315-.167s-.137-.072-.179-.1a2.958,2.958,0,0,1-.44-.368,3.068,3.068,0,0,1-.356-.43,1.632,1.632,0,0,1-.1-.185,3.048,3.048,0,0,1-.158-.313,2.792,2.792,0,0,1-.121-.384,1.077,1.077,0,0,1-.048-.16,2.891,2.891,0,0,1,2.828-3.461h3.73a.846.846,0,0,0,.844-.845V12.415H53.215V10.727H9.661V4.1a.844.844,0,0,0-.844-.844H5.083A4.581,4.581,0,0,0,.506,7.837V60.1a4.556,4.556,0,0,0,.091.92c.038.117.054.164.066.211l-.1.026Zm1.528-53.4A2.892,2.892,0,0,1,5.083,4.948H7.972V55.526H5.078A4.547,4.547,0,0,0,2.8,56.14l-.6.348Z" fill="#fff"/>
    <path id="Path_923" data-name="Path 923" d="M50.727,52.236V50.547h-11.2V37.3H57.75v7.467h1.689l-.011-8.362a.764.764,0,0,0-.047-.247l-.027-.061a.841.841,0,0,0-.1-.169l-3.481-4.357L54.45,32.626l2.384,2.989H39.089l-8.6-10.759H42.017V23.17H28.728a.833.833,0,0,0-.552.211v.09l-.162.081-9.9,12.379a.827.827,0,0,0-.074.114v.044l-.056.075a.887.887,0,0,0-.046.254l-.022.13.013,14.844a.844.844,0,0,0,.844.844Zm-19.11-1.688H25.838V42.28h5.779ZM28.728,25.362l8.2,10.25h-16.4ZM37.839,37.3V50.548H33.305V41.437a.844.844,0,0,0-.844-.844H24.994a.843.843,0,0,0-.843.844v9.111H19.617V37.3Z" fill="#fff"/>
    <path id="Path_924" data-name="Path 924" d="M51.128,40.593H46.15a.844.844,0,0,0-.844.844v4.978a.845.845,0,0,0,.844.843h4.978a.843.843,0,0,0,.843-.843V41.437a.844.844,0,0,0-.843-.844m-.843,4.978h-3.29V42.282h3.29Z" fill="#fff"/>
    <path id="Path_925" data-name="Path 925" d="M73.851,34.434h0a.854.854,0,0,0-.324-.064.84.84,0,0,0-.6.248L34.353,73.2a.844.844,0,0,0,0,1.194.85.85,0,0,0,.6.246H73.528a.845.845,0,0,0,.844-.844V35.215a.842.842,0,0,0-.521-.781M36.988,72.948,72.683,37.253V72.948Z" fill="#fff"/>
    <path id="Path_926" data-name="Path 926" d="M53.615,67.17H66.06a.845.845,0,0,0,.844-.845V53.881a.844.844,0,0,0-1.44-.6L53.02,65.729a.839.839,0,0,0-.184.919l-.369.153h0l.369-.154a.842.842,0,0,0,.78.521m11.6-11.25v9.565H55.65Z" fill="#fff"/>
    <path id="Path_927" data-name="Path 927" d="M46.15,30.186l.648.647a.866.866,0,0,0,.864.2L51.4,29.793a.83.83,0,0,0,.33-.2l22.4-22.4a.846.846,0,0,0,0-1.194L69.147,1.018a.846.846,0,0,0-1.194,0l-22.4,22.4a.84.84,0,0,0-.2.328L44.106,27.48a.838.838,0,0,0,.2.863l.648.649L42.1,31.846l1.2,1.194ZM68.551,2.8l3.783,3.784L58.594,20.336l-3.785-3.784ZM53.615,17.746,57.4,21.53l-5.65,5.65L47.965,23.4Zm-6.787,6.9L50.5,28.317l-2.878.958-1.749-1.75Z" fill="#fff"/>
  </g>
</svg>
