<svg width="26" height="43" viewBox="0 0 26 43" fill="none" xmlns="http://www.w3.org/2000/svg">
<path d="M4.16859 0.986319C4.97166 0.938472 5.70285 1.36496 6.27171 1.93382L22.8525 18.5146C24.1169 19.779 24.0359 21.8527 22.6767 23.0147V23.0147C21.3813 24.1221 19.4314 23.9611 18.3352 22.6561L3.24374 4.69098C2.80211 4.16524 2.47693 3.53316 2.48869 2.84664C2.49754 2.32934 2.59222 1.74567 2.92368 1.41421C3.21557 1.12232 3.70308 1.01405 4.16859 0.986319Z" fill="black"/>
<path d="M2.18208 38.7559C2.12249 38.0192 2.45964 37.3266 2.93114 36.7575L17.6971 18.933C18.9178 17.4594 21.1416 17.3552 22.4947 18.7082V18.7082C23.7713 19.9846 23.762 22.0571 22.4742 23.322L5.96076 39.5423C5.43973 40.0541 4.78769 40.4451 4.05742 40.4549C3.55783 40.4617 3.00672 40.3861 2.67588 40.0841C2.3481 39.7849 2.22206 39.2502 2.18208 38.7559Z" fill="black"/>
</svg>
