<svg width="26" height="43" viewBox="0 0 26 43" fill="none" xmlns="http://www.w3.org/2000/svg">
<path d="M21.0336 0.986319C20.2305 0.938472 19.4993 1.36496 18.9304 1.93382L2.34969 18.5146C1.08523 19.779 1.16623 21.8527 2.52547 23.0147V23.0147C3.8209 24.1221 5.77072 23.9611 6.86692 22.6561L21.9584 4.69098C22.4 4.16524 22.7252 3.53316 22.7135 2.84664C22.7046 2.32934 22.6099 1.74567 22.2785 1.41421C21.9866 1.12232 21.4991 1.01405 21.0336 0.986319Z" fill="white"/>
<path d="M23.0201 38.7559C23.0797 38.0192 22.7425 37.3266 22.271 36.7575L7.50506 18.933C6.28431 17.4594 4.06057 17.3552 2.7074 18.7082V18.7082C1.43087 19.9846 1.4401 22.0571 2.72795 23.322L19.2414 39.5423C19.7624 40.0541 20.4145 40.4451 21.1447 40.4549C21.6443 40.4617 22.1954 40.3861 22.5263 40.0841C22.854 39.7849 22.9801 39.2502 23.0201 38.7559Z" fill="white"/>
</svg>
